<svg xmlns="http://www.w3.org/2000/svg" viewBox="0 0 128 128" width="256" height="256"><path fill="#444b54" d="M122.8 73c1.4 1 3.3.7 4.3-.8.9-1.4.4-3.2-.9-4.2l-17.8-13.2c-.9-.7-2.2-.8-3.2-.2l-15.4 8.2c-.4.2-1 .1-1.3-.3C83.5 55.7 75.8 51 67 50.2c0-.1 0-.1 0-.2l0-30.9c0-1.5-1-2.8-2.4-3.1C62.7 15.7 61 17.1 61 19v31c0 .1 0 .1 0 .2-8.8.9-16.6 5.6-21.4 12.4-.3.4-.8.5-1.3.3l-15.4-8.2c-1-.5-2.3-.5-3.2.2L1.8 68.1c-1.2.9-1.7 2.4-1 3.8.8 1.8 3 2.2 4.5 1.1l16.5-12.2 13.8 7.3c.4.2.6.8.5 1.2-.8 2.1-1.4 4.4-1.7 6.7-.1.5-.5.9-1 .9H14c-1.2 0-2.2.7-2.7 1.7L1.5 99.2c-.7 1.4-.3 3.1 1 3.9.5.3 1.1.5 1.6.5 1.1 0 2.2-.6 2.7-1.7l9-18.8h17.4c.5 0 .9.4 1 .9.3 2 .7 3.9 1.3 5.7.2.5 0 1-.5 1.2l-17.4 8.5c-1 .5-1.7 1.5-1.7 2.7l0 21.9c0 1.5 1 2.8 2.4 3.1 1.9.4 3.6-1.1 3.6-2.9v-20.1l15.7-7.7c.5-.2 1-.1 1.3.4 5.4 8.1 14.6 13.5 25 13.5s19.6-5.3 25-13.5c.3-.4.8-.6 1.3-.4l15.7 7.7 0 20c0 1.5 1 2.8 2.4 3.1 1.9.4 3.6-1.1 3.6-2.9v-22c0-1.1-.7-2.2-1.7-2.7l-17.4-8.5c-.5-.2-.7-.7-.5-1.2.6-1.8 1.1-3.7 1.3-5.7.1-.5.5-.9 1-.9h17.4l9 18.8c.5 1.1 1.6 1.7 2.7 1.7.6 0 1.1-.2 1.6-.5 1.3-.8 1.7-2.5 1-3.9l-9.8-20.4c-.5-1-1.6-1.7-2.7-1.7H94.7c-.5 0-.9-.4-1-.9-.3-2.3-.9-4.6-1.7-6.7-.2-.5 0-1 .5-1.2l13.8-7.3L122.8 73zM64 1A3 3 0 1 0 64 7 3 3 0 1 0 64 1z"/><path fill="#fff" d="M51 72A8 8 0 1 0 51 88A8 8 0 1 0 51 72Z"/><path fill="#444b54" d="M51 77A3 3 0 1 0 51 83A3 3 0 1 0 51 77Z"/><path fill="#fff" d="M77 72A8 8 0 1 0 77 88A8 8 0 1 0 77 72Z"/><path fill="#444b54" d="M77 77A3 3 0 1 0 77 83A3 3 0 1 0 77 77Z"/></svg>